<svg version="1.1" id="图层_1" xmlns="http://www.w3.org/2000/svg" x="0" y="0" viewBox="0 0 534 530" xml:space="preserve"><style>.st0,.st1{fill-rule:evenodd;clip-rule:evenodd;fill:#28282b}.st1{fill:#212124}</style><g id="页面-1"><g id="编组"><path id="Fill-1" class="st0" d="M243.6 301.8l57.7-99.9-70.8-122.8-53.5 92.6 34.8 20.1 18.7-32.3 24.4 42.3-57.7 100z"/><path id="Fill-2" class="st0" d="M172 97.7h-46.5L66.9 199.2 137.2 321l53.5-92.6-34.8-20.2-18.7 32.4-23.9-41.3z"/><path id="Fill-3" class="st0" d="M276.1 0l-19.7 34.2L327.2 157l23.1-40-23.2-40.3-15.3-26.6-9.1-15.7L322.6 0z"/><path id="Fill-4" class="st1" d="M17.9 284.1l23.2 40.3 15.4 26.5 9 15.8L0 480.2V530h17.7l94.2-163.1L41 244z"/><path id="Fill-5" class="st0" d="M224.3 417.9l34.9 20.2 18.6-32.4 24.5 42.3-47.4 82h46.5l47.3-81.9-70.9-122.8z"/><path id="Fill-6" class="st0" d="M172.9 343.9l-58.6 101.5 48.8 84.6h43l32-55.4-34.9-20.1-18.7 32.3-23.8-41.3 58.6-101.6z"/><path id="Fill-7" class="st0" d="M65.4 530h45.9l-22.9-39.8z"/><path id="Fill-8" class="st0" d="M494.7 441l39.3 68V373z"/><path id="Fill-9" class="st1" d="M445.7 525.9l2.4 4.1h46.2l-25.5-44.1z"/><path id="Fill-10" class="st0" d="M526.1 58.5h7.9V44.8z"/><path id="Fill-11" class="st0" d="M421.3 0l44.8 77.7L511 0z"/><path id="Fill-12" class="st1" d="M346.8 40.8L370 81l15.3 26.6 9.1 15.7-90.7 157.1h.1l23.2 40.3 47.6 82.5 23.1-40-23.2-40.3-15.3-26.5-9.1-15.8 90.7-157-.1-.1-23.2-40.2L369.9.7z"/><path id="Fill-13" class="st0" d="M501.8 100.5L443.2 202l70.3 121.9 20.5-35.5v-76.3l-1.8-1-18.7 32.3-23.9-41.3 44.4-76.9v-24.7z"/><path id="Fill-14" class="st0" d="M394.2 286.9l23.2 40.3 15.3 26.5 9.1 15.8-86.4 149.7 6.2 10.8h46.3l-6.2-10.6 86.5-149.7-23.2-40.3-47.7-82.5z"/><path id="Fill-15" class="st0" d="M181.9 0l-29.8 51.7h46.4L228.4 0z"/><path id="Fill-16" class="st0" d="M51.2 0l40.9 70.9 41-70.9z"/><path id="Fill-17" class="st0" d="M0 81.1l11.4 19.7 9 15.7L0 152v80.4l66.8-115.7L0 1z"/></g></g></svg>